<svg width="50" height="50" viewBox="0 0 50 50" fill="none" xmlns="http://www.w3.org/2000/svg">
<path d="M38.1953 48.3398H11.9258C11.3865 48.3398 10.9492 47.9025 10.9492 47.3633V45.8008C10.9492 45.2615 11.3865 44.8242 11.9258 44.8242H38.1953C38.7346 44.8242 39.1719 45.2615 39.1719 45.8008V47.3633C39.1719 47.9025 38.7348 48.3398 38.1953 48.3398Z" fill="#F9CFCF"/>
<path d="M38.1953 48.7305H11.9258C11.1719 48.7305 10.5586 48.117 10.5586 47.3633V45.8008C10.5586 45.0471 11.1719 44.4336 11.9258 44.4336H38.1953C38.9492 44.4336 39.5625 45.0471 39.5625 45.8008V47.3633C39.5625 48.117 38.9492 48.7305 38.1953 48.7305ZM11.9258 45.2148C11.6027 45.2148 11.3398 45.4777 11.3398 45.8008V47.3633C11.3398 47.6863 11.6027 47.9492 11.9258 47.9492H38.1953C38.5184 47.9492 38.7812 47.6863 38.7812 47.3633V45.8008C38.7812 45.4777 38.5184 45.2148 38.1953 45.2148H11.9258Z" fill="#3762CC"/>
<path d="M39.2624 42.0129C39.181 41.6578 38.8652 41.4062 38.5009 41.4062H25.0609H11.6209C11.2566 41.4062 10.9408 41.658 10.8593 42.0129L10.1431 45.1379C10.031 45.6271 10.4027 46.0938 10.9046 46.0938H25.0609H39.2171C39.7191 46.0938 40.0908 45.6271 39.9787 45.1379L39.2624 42.0129Z" fill="#6BDDDD"/>
<path d="M46.9448 36.2253C47.0343 36.0962 47.1122 35.9565 47.1734 35.8048C47.6187 34.7028 47.0862 33.4483 45.9841 33.003C44.8819 32.5577 43.6277 33.0901 43.1823 34.1923C43.1812 34.1952 43.1804 34.1981 43.1794 34.2009C43.1259 34.1743 43.0724 34.1477 43.0161 34.1251C41.8222 33.6427 40.4634 34.2196 39.981 35.4134C39.4986 36.6073 40.0753 37.9661 41.2693 38.4485C42.0058 38.7462 42.8046 38.6395 43.4222 38.2347C43.5497 38.9368 44.0214 39.5604 44.7319 39.8475C45.8341 40.2929 47.0884 39.7604 47.5337 38.6583C47.8878 37.7821 47.6222 36.8108 46.9448 36.2253Z" fill="#E0EBFC"/>
<path d="M42.6832 39.7612L41.5664 42.5252C41.4674 42.7701 41.1887 42.8885 40.9438 42.7895C40.6989 42.6905 40.5805 42.4117 40.6795 42.1668L41.7963 39.4028C41.8953 39.1578 42.174 39.0395 42.419 39.1385C42.6639 39.2375 42.7823 39.5164 42.6832 39.7612Z" fill="#E0EBFC"/>
<path d="M44.0137 40.2983L42.3594 44.3926C42.2604 44.6375 41.9817 44.7559 41.7367 44.6569C41.4918 44.5578 41.3735 44.2791 41.4725 44.0342L43.1268 39.9399C43.2258 39.6949 43.5045 39.5766 43.7494 39.6756C43.9944 39.7746 44.1127 40.0533 44.0137 40.2983Z" fill="#E0EBFC"/>
<path d="M3.0564 36.2253C2.96694 36.0962 2.88901 35.9565 2.82788 35.8048C2.38257 34.7028 2.91499 33.4483 4.01714 33.003C5.11929 32.5577 6.37359 33.0901 6.8189 34.1923C6.82007 34.1952 6.82085 34.1981 6.82183 34.2009C6.87534 34.1743 6.92886 34.1477 6.98511 34.1251C8.17905 33.6427 9.53784 34.2196 10.0203 35.4134C10.5027 36.6073 9.92593 37.9661 8.73198 38.4485C7.99546 38.7462 7.19663 38.6395 6.57905 38.2347C6.45151 38.9368 5.97983 39.5604 5.26929 39.8475C4.16714 40.2929 2.91284 39.7604 2.46753 38.6583C2.11343 37.7821 2.37905 36.8108 3.0564 36.2253Z" fill="#E0EBFC"/>
<path d="M7.31819 39.7612L8.43499 42.5252C8.53401 42.7701 8.81272 42.8885 9.05765 42.7895C9.30257 42.6905 9.42093 42.4117 9.3219 42.1668L8.20511 39.4028C8.10608 39.1578 7.82737 39.0395 7.58245 39.1385C7.33753 39.2375 7.21917 39.5164 7.31819 39.7612Z" fill="#E0EBFC"/>
<path d="M5.98811 40.2983L7.64241 44.3926C7.74143 44.6375 8.02014 44.7559 8.26507 44.6569C8.50999 44.5578 8.62835 44.2791 8.52932 44.0342L6.87503 39.9399C6.776 39.6949 6.49729 39.5766 6.25237 39.6756C6.00745 39.7746 5.88909 40.0533 5.98811 40.2983Z" fill="#E0EBFC"/>
<path d="M14.3191 26.499C13.6605 25.0598 12.5681 23.8607 11.2083 23.0684C10.9644 22.9262 10.9644 22.5812 11.2083 22.4393C12.5681 21.6471 13.6605 20.4479 14.3191 19.0086C14.447 18.7289 14.8455 18.7289 14.9736 19.0086C15.6322 20.4479 16.7246 21.6471 18.0843 22.4393C18.3283 22.5814 18.3283 22.9264 18.0843 23.0684C16.7246 23.8607 15.6322 25.0598 14.9736 26.499C14.8455 26.7787 14.447 26.7787 14.3191 26.499Z" fill="#FFEA92"/>
<path d="M33.5731 31.5622C33.1122 30.5548 32.3474 29.7153 31.3956 29.1606C31.2249 29.0612 31.2249 28.8196 31.3956 28.7202C32.3474 28.1657 33.1122 27.3263 33.5731 26.3187C33.6628 26.1229 33.9417 26.1229 34.0312 26.3187C34.4921 27.3263 35.2567 28.1655 36.2087 28.7202C36.3794 28.8196 36.3794 29.061 36.2087 29.1606C35.2567 29.7153 34.4921 30.5546 34.0312 31.5622C33.9417 31.7579 33.6628 31.7579 33.5731 31.5622Z" fill="#FFEA92"/>
<path d="M33.5731 14.5349C33.1122 13.5274 32.3474 12.688 31.3956 12.1333C31.2249 12.0339 31.2249 11.7923 31.3956 11.6929C32.3474 11.1384 33.1122 10.2989 33.5731 9.29131C33.6628 9.09561 33.9417 9.09561 34.0312 9.29131C34.4921 10.2989 35.2567 11.1382 36.2087 11.6929C36.3794 11.7923 36.3794 12.0337 36.2087 12.1333C35.2567 12.688 34.4921 13.5272 34.0312 14.5349C33.9417 14.7308 33.6628 14.7308 33.5731 14.5349Z" fill="#FFEA92"/>
<path d="M39.217 46.4844H10.9047C10.5459 46.4844 10.2117 46.3234 9.98807 46.0426C9.76444 45.7619 9.68221 45.4004 9.76249 45.0506L10.4785 41.9258C10.6016 41.3898 11.0713 41.0156 11.6209 41.0156H38.501C39.0506 41.0156 39.5205 41.3898 39.6433 41.9256L40.3596 45.0506C40.4398 45.4006 40.3574 45.7623 40.1338 46.0428C39.9101 46.3232 39.5758 46.4844 39.217 46.4844ZM11.6207 41.7969C11.4375 41.7969 11.2808 41.9217 11.2398 42.1004L10.5238 45.2252C10.4971 45.342 10.5244 45.4625 10.599 45.5559C10.6736 45.6494 10.7849 45.7031 10.9045 45.7031H39.2168C39.3363 45.7031 39.4476 45.6496 39.5223 45.5559C39.5969 45.4623 39.6242 45.3418 39.5974 45.2252L38.8812 42.1002C38.8402 41.9217 38.6836 41.7969 38.5004 41.7969H11.6207Z" fill="#3762CC"/>
<path d="M28.3809 16.3086H21.7402V11.5234C21.7402 11.092 22.09 10.7422 22.5215 10.7422H27.5996C28.0311 10.7422 28.3809 11.092 28.3809 11.5234V16.3086Z" fill="#F9CFCF"/>
<path d="M28.9668 16.3086H21.1543C20.7229 16.3086 20.373 16.6584 20.373 17.0898V19.4336H29.748V17.0898C29.748 16.6584 29.3982 16.3086 28.9668 16.3086Z" fill="#F9A7A7"/>
<path d="M25.8418 19.4336H24.2793H20.373V29.4922L21.5928 37.7686C21.6775 38.3436 22.1709 38.7695 22.7521 38.7695H24.2793H25.8418H27.3689C27.9502 38.7695 28.4436 38.3436 28.5283 37.7686L29.748 29.4922V19.4336H25.8418Z" fill="#6BDDDD"/>
<path d="M23.1885 35.2002L22.3465 29.4865C22.333 29.3951 22.3262 29.3029 22.3262 29.2105V23.2791C22.3262 22.234 23.1734 21.3867 24.2186 21.3867H25.9025C26.9477 21.3867 27.7949 22.234 27.7949 23.2791V29.2105C27.7949 29.3029 27.7881 29.3951 27.7746 29.4865L26.9326 35.2002C26.7957 36.1287 25.999 36.8166 25.0605 36.8166C24.1221 36.8166 23.3254 36.1287 23.1885 35.2002Z" fill="#E0EBFC"/>
<path d="M25.0605 25.4883C25.8156 25.4883 26.4277 24.8762 26.4277 24.1211C26.4277 23.366 25.8156 22.7539 25.0605 22.7539C24.3055 22.7539 23.6934 23.366 23.6934 24.1211C23.6934 24.8762 24.3055 25.4883 25.0605 25.4883Z" fill="#F9A7A7"/>
<path d="M27.209 1.66016H22.9121V10.7422H27.209V1.66016Z" fill="#A4C9FF"/>
<path d="M25.8418 38.7695H24.2793H22.9121V42.2852C22.9121 42.7166 23.2619 43.0664 23.6934 43.0664H26.4277C26.8592 43.0664 27.209 42.7166 27.209 42.2852V38.7695H25.8418Z" fill="#A4C9FF"/>
<path d="M28.3809 16.6992H21.7402C21.5246 16.6992 21.3496 16.5242 21.3496 16.3086V11.5234C21.3496 10.8771 21.8752 10.3516 22.5215 10.3516H27.5996C28.2459 10.3516 28.7715 10.8771 28.7715 11.5234V16.3086C28.7715 16.5242 28.5967 16.6992 28.3809 16.6992ZM22.1309 15.918H27.9902V11.5234C27.9902 11.308 27.815 11.1328 27.5996 11.1328H22.5215C22.3061 11.1328 22.1309 11.308 22.1309 11.5234V15.918V15.918Z" fill="#3762CC"/>
<path d="M29.7481 19.8242H20.373C20.1574 19.8242 19.9824 19.6492 19.9824 19.4336V17.0898C19.9824 16.4436 20.508 15.918 21.1543 15.918H28.9668C29.6131 15.918 30.1387 16.4436 30.1387 17.0898V19.4336C30.1387 19.6492 29.9639 19.8242 29.7481 19.8242ZM20.7637 19.043H29.3574V17.0898C29.3574 16.8744 29.1822 16.6992 28.9668 16.6992H21.1543C20.9389 16.6992 20.7637 16.8744 20.7637 17.0898V19.043V19.043Z" fill="#3762CC"/>
<path d="M27.3689 39.1602H22.752C21.9828 39.1602 21.3184 38.5863 21.2062 37.8254L19.9865 29.5492C19.9838 29.5303 19.9824 29.5113 19.9824 29.4922V19.4336C19.9824 19.218 20.1574 19.043 20.373 19.043H29.748C29.9637 19.043 30.1387 19.218 30.1387 19.4336V29.4922C30.1387 29.5113 30.1373 29.5303 30.1346 29.5492L28.9148 37.8256C28.8025 38.5865 28.1381 39.1602 27.3689 39.1602ZM20.7635 29.4637L21.9791 37.7115C22.0352 38.092 22.3674 38.3789 22.752 38.3789H27.3689C27.7535 38.3789 28.0857 38.092 28.1418 37.7117L29.3572 29.4637V19.8242H20.7635V29.4637V29.4637Z" fill="#3762CC"/>
<path d="M27.209 11.1328H22.9121C22.6965 11.1328 22.5215 10.9578 22.5215 10.7422V1.66016C22.5215 1.44453 22.6965 1.26953 22.9121 1.26953H27.209C27.4246 1.26953 27.5996 1.44453 27.5996 1.66016V10.7422C27.5996 10.9578 27.4248 11.1328 27.209 11.1328ZM23.3027 10.3516H26.8184V2.05078H23.3027V10.3516V10.3516Z" fill="#3762CC"/>
<path d="M26.4277 43.457H23.6934C23.0471 43.457 22.5215 42.9314 22.5215 42.2852V38.7695C22.5215 38.5539 22.6965 38.3789 22.9121 38.3789H27.209C27.4246 38.3789 27.5996 38.5539 27.5996 38.7695V42.2852C27.5996 42.9314 27.074 43.457 26.4277 43.457ZM23.3027 39.1602V42.2852C23.3027 42.5006 23.4779 42.6758 23.6934 42.6758H26.4277C26.6432 42.6758 26.8184 42.5006 26.8184 42.2852V39.1602H23.3027Z" fill="#3762CC"/>
</svg>
