<svg width="50" height="50" viewBox="0 0 50 50" fill="none" xmlns="http://www.w3.org/2000/svg">
<g clip-path="url(#clip0_5_207)">
<path d="M6.56332 43.329C4.99588 43.329 3.7207 41.9622 3.7207 40.2821V12.6836C3.7207 11.0035 4.99588 9.63672 6.56332 9.63672H46.4892C48.0566 9.63672 49.3318 11.0035 49.3318 12.6836V40.2823C49.3318 41.9624 48.0566 43.3292 46.4892 43.3292H6.56332V43.329Z" fill="#CECECE"/>
<path d="M6.77155 40.2842V12.6856C6.77155 11.0057 8.04673 9.63867 9.61417 9.63867H6.56332C4.99609 9.63867 3.7207 11.0055 3.7207 12.6856V40.2842C3.7207 41.9641 4.99588 43.3311 6.56332 43.3311H9.61438C8.04694 43.3309 6.77155 41.9641 6.77155 40.2842Z" fill="#AFAFAF"/>
<path d="M46.284 40.2842V12.6856C46.284 11.0057 45.0088 9.63867 43.4414 9.63867H46.4925C48.0597 9.63867 49.3351 11.0055 49.3351 12.6856V40.2842C49.3351 41.9641 48.0599 43.3311 46.4925 43.3311H43.4414C45.0086 43.3309 46.284 41.9641 46.284 40.2842Z" fill="#E2E2E2"/>
<path d="M47.5831 37.6067C47.5831 38.2513 47.0911 38.7786 46.4897 38.7786H6.56407C5.96268 38.7786 5.4707 38.2513 5.4707 37.6067V12.6837C5.4707 12.039 5.96268 11.5117 6.56407 11.5117H46.4899C47.0913 11.5117 47.5833 12.039 47.5833 12.6837V37.6067H47.5831Z" fill="#63BCE7"/>
<path d="M8.52176 37.6047V12.6817C8.52176 12.0371 9.01373 11.5098 9.61513 11.5098H6.56407C5.96268 11.5098 5.4707 12.0371 5.4707 12.6817V37.6047C5.4707 38.2493 5.96268 38.7767 6.56407 38.7767H9.61513C9.01373 38.7764 8.52176 38.2491 8.52176 37.6047Z" fill="#6377E7"/>
<path d="M44.5348 37.6047V12.6817C44.5348 12.0371 44.0428 11.5098 43.4414 11.5098H46.4925C47.0939 11.5098 47.5858 12.0371 47.5858 12.6817V37.6047C47.5858 38.2493 47.0939 38.7767 46.4925 38.7767H43.4414C44.0428 38.7764 44.5348 38.2491 44.5348 37.6047Z" fill="#63E2E7"/>
<path d="M34.4733 48.2695H18.584V50.3202H34.4733V48.2695Z" fill="#9E9E9E"/>
<path d="M21.635 48.2715H18.584V50.3221H21.635V48.2715Z" fill="#707070"/>
<path d="M32.214 43.3301H20.8438V48.2707H32.214V43.3301Z" fill="#CECECE"/>
<path d="M23.8929 43.3281H20.8418V48.2687H23.8929V43.3281Z" fill="#AFAFAF"/>
<path d="M26.5298 42.0575C27.0468 42.0575 27.4659 41.6083 27.4659 41.0542C27.4659 40.5 27.0468 40.0508 26.5298 40.0508C26.0129 40.0508 25.5938 40.5 25.5938 41.0542C25.5938 41.6083 26.0129 42.0575 26.5298 42.0575Z" fill="#9E9E9E"/>
<path d="M25.3814 18.6641H10.8848V20.1974H25.3814V18.6641Z" fill="#F46275"/>
<path d="M27.1968 22.0234H17.1699V23.5568H27.1968V22.0234Z" fill="#F46275"/>
<path d="M42.1736 22.0234H29.0059V23.5568H42.1736V22.0234Z" fill="#F46275"/>
<path d="M23.0894 24.7988H17.1699V26.3322H23.0894V24.7988Z" fill="#F8AF23"/>
<path d="M23.0894 34.1445H17.1699V35.6779H23.0894V34.1445Z" fill="#F46275"/>
<path d="M42.175 24.7988H25.5039V26.3322H42.175V24.7988Z" fill="#F8AF23"/>
<path d="M25.3814 28.0117H10.8848V29.5451H25.3814V28.0117Z" fill="#CECECE"/>
<path d="M27.1968 31.3711H17.1699V32.9045H27.1968V31.3711Z" fill="#CECECE"/>
<path d="M42.1736 31.3711H29.0059V32.9045H42.1736V31.3711Z" fill="#CECECE"/>
<path d="M42.175 34.1445H25.5039V35.6779H42.175V34.1445Z" fill="#F46275"/>
<path d="M35.979 15.8376H17.0744C13.8791 15.8376 11.2891 13.0614 11.2891 9.63659C11.2891 6.21176 13.8791 3.43555 17.0744 3.43555H35.979C39.1742 3.43555 41.7643 6.21176 41.7643 9.63659C41.7643 13.0614 39.1742 15.8376 35.979 15.8376Z" fill="#F8AF23"/>
<path d="M14.3421 9.63659C14.3421 6.21198 16.9322 3.43555 20.1274 3.43555H17.0763C13.8811 3.43555 11.291 6.21198 11.291 9.63659C11.291 13.0614 13.8811 15.8376 17.0763 15.8376H20.1274C16.9322 15.8376 14.3421 13.0614 14.3421 9.63659Z" fill="#F87023"/>
<path d="M38.713 9.63659C38.713 6.21198 36.123 3.43555 32.9277 3.43555H35.9788C39.174 3.43555 41.7641 6.21198 41.7641 9.63659C41.7641 13.0614 39.174 15.8376 35.9788 15.8376H32.9277C36.123 15.8376 38.713 13.0614 38.713 9.63659Z" fill="#F8D323"/>
<path d="M26.5294 42.3925C27.2177 42.3925 27.7775 41.7924 27.7775 41.0546C27.7775 40.3168 27.2177 39.7168 26.5294 39.7168C25.841 39.7168 25.2812 40.3168 25.2812 41.0546C25.2812 41.7924 25.841 42.3925 26.5294 42.3925ZM26.5294 40.3857C26.8734 40.3857 27.1534 40.6858 27.1534 41.0546C27.1534 41.4234 26.8734 41.7235 26.5294 41.7235C26.1853 41.7235 25.9053 41.4234 25.9053 41.0546C25.9053 40.6858 26.1853 40.3857 26.5294 40.3857Z" fill="#3F3679"/>
<path d="M1.83938 50.6548H18.5826H34.472H51.2152C51.3875 50.6548 51.5273 50.5049 51.5273 50.3203C51.5273 50.1357 51.3875 49.9859 51.2152 49.9859H34.784V48.2697C34.784 48.085 34.6442 47.9352 34.472 47.9352H32.5245V43.6635H46.4904C48.2297 43.6635 49.6449 42.1467 49.6449 40.2824V12.684C49.6449 10.8195 48.2297 9.30261 46.4904 9.30261H42.0691C41.9063 5.85369 39.2373 3.10156 35.9799 3.10156H17.0751C13.8177 3.10156 11.1488 5.85369 10.9857 9.30261H6.56439C4.82511 9.30261 3.40994 10.8195 3.40994 12.684V40.2824C3.40994 42.1467 4.82511 43.6635 6.56439 43.6635H20.5304V47.9352H18.5829C18.4106 47.9352 18.2708 48.085 18.2708 48.2697V49.9859H1.83938C1.66713 49.9859 1.52734 50.1357 1.52734 50.3203C1.52734 50.5049 1.66713 50.6548 1.83938 50.6548ZM17.0751 16.1723H35.9799C38.6189 16.1723 40.8707 14.3658 41.7178 11.8465H46.4906C46.9213 11.8465 47.2718 12.2222 47.2718 12.6837V37.6068C47.2718 38.0685 46.9213 38.4442 46.4906 38.4442H6.56439C6.13378 38.4442 5.78326 38.0685 5.78326 37.6068V12.6837C5.78326 12.2222 6.13378 11.8465 6.56439 11.8465H11.3372C12.1843 14.3658 14.4361 16.1723 17.0751 16.1723ZM17.0751 3.77048H35.9799C38.9979 3.77048 41.4532 6.4022 41.4532 9.63706C41.4532 12.8719 38.9979 15.5036 35.9799 15.5036H17.0751C14.0571 15.5036 11.6018 12.8719 11.6018 9.63706C11.6018 6.4022 14.0571 3.77048 17.0751 3.77048ZM4.03401 40.2824V12.684C4.03401 11.1883 5.16918 9.97152 6.56439 9.97152H10.9857C11.0052 10.3849 11.0622 10.7878 11.1504 11.1776H6.56439C5.7895 11.1776 5.1592 11.8532 5.1592 12.6837V37.6068C5.1592 38.4375 5.7895 39.1131 6.56439 39.1131H46.4904C47.2653 39.1131 47.8956 38.4375 47.8956 37.6068V12.6837C47.8956 11.8532 47.2653 11.1776 46.4904 11.1776H41.9044C41.9926 10.7876 42.0496 10.3849 42.0691 9.97152H46.4904C47.8856 9.97152 49.0208 11.1883 49.0208 12.684V40.2824C49.0208 41.7779 47.8856 42.9946 46.4904 42.9946H32.2124H20.8424H6.56439C5.16918 42.9946 4.03401 41.7779 4.03401 40.2824ZM21.1544 43.6635H31.9004V47.9352H21.1544V43.6635ZM18.8949 48.6041H20.8424H32.2124H34.1599V49.9859H18.8949V48.6041Z" fill="#3F3679"/>
<path d="M10.8823 20.5324H25.379C25.5512 20.5324 25.691 20.3825 25.691 20.1979V18.6645C25.691 18.4799 25.5512 18.3301 25.379 18.3301H10.8823C10.7101 18.3301 10.5703 18.4799 10.5703 18.6645V20.1979C10.5703 20.3825 10.7101 20.5324 10.8823 20.5324ZM11.1944 18.999H25.067V19.8634H11.1944V18.999Z" fill="#3F3679"/>
<path d="M16.8516 22.0239V23.5573C16.8516 23.7419 16.9914 23.8917 17.1636 23.8917H27.1905C27.3627 23.8917 27.5025 23.7419 27.5025 23.5573V22.0239C27.5025 21.8393 27.3627 21.6895 27.1905 21.6895H17.1636C16.9914 21.6895 16.8516 21.8393 16.8516 22.0239ZM17.4756 22.3584H26.8784V23.2228H17.4756V22.3584Z" fill="#3F3679"/>
<path d="M29.0015 23.8917H42.1693C42.3415 23.8917 42.4813 23.7419 42.4813 23.5573V22.0239C42.4813 21.8393 42.3415 21.6895 42.1693 21.6895H29.0015C28.8292 21.6895 28.6895 21.8393 28.6895 22.0239V23.5573C28.6895 23.7419 28.8292 23.8917 29.0015 23.8917ZM29.3135 22.3584H41.8572V23.2228H29.3135V22.3584V22.3584Z" fill="#3F3679"/>
<path d="M17.1636 24.4609C16.9914 24.4609 16.8516 24.6108 16.8516 24.7954V26.3288C16.8516 26.5134 16.9914 26.6632 17.1636 26.6632H23.0831C23.2553 26.6632 23.3951 26.5134 23.3951 26.3288V24.7954C23.3951 24.6108 23.2553 24.4609 23.0831 24.4609H17.1636ZM22.771 25.9943H17.4756V25.1298H22.771V25.9943Z" fill="#3F3679"/>
<path d="M23.0831 33.8086H17.1636C16.9914 33.8086 16.8516 33.9584 16.8516 34.1431V35.6764C16.8516 35.861 16.9914 36.0109 17.1636 36.0109H23.0831C23.2553 36.0109 23.3951 35.861 23.3951 35.6764V34.1431C23.3951 33.9584 23.2553 33.8086 23.0831 33.8086ZM22.771 35.342H17.4756V34.4775H22.771V35.342Z" fill="#3F3679"/>
<path d="M42.1708 24.4609H25.4995C25.3273 24.4609 25.1875 24.6108 25.1875 24.7954V26.3288C25.1875 26.5134 25.3273 26.6632 25.4995 26.6632H42.1708C42.3431 26.6632 42.4829 26.5134 42.4829 26.3288V24.7954C42.4829 24.6108 42.3431 24.4609 42.1708 24.4609ZM41.8588 25.9943H25.8116V25.1298H41.8588V25.9943Z" fill="#3F3679"/>
<path d="M10.8823 29.8781H25.379C25.5512 29.8781 25.691 29.7282 25.691 29.5436V28.0102C25.691 27.8256 25.5512 27.6758 25.379 27.6758H10.8823C10.7101 27.6758 10.5703 27.8256 10.5703 28.0102V29.5436C10.5703 29.7282 10.7101 29.8781 10.8823 29.8781ZM11.1944 28.3447H25.067V29.2092H11.1944V28.3447Z" fill="#3F3679"/>
<path d="M17.1636 33.2357H27.1905C27.3627 33.2357 27.5025 33.0859 27.5025 32.9013V31.3677C27.5025 31.183 27.3627 31.0332 27.1905 31.0332H17.1636C16.9914 31.0332 16.8516 31.183 16.8516 31.3677V32.9013C16.8516 33.0859 16.9914 33.2357 17.1636 33.2357ZM17.4756 31.7021H26.8784V32.5668H17.4756V31.7021Z" fill="#3F3679"/>
<path d="M42.1693 31.0332H29.0015C28.8292 31.0332 28.6895 31.183 28.6895 31.3677V32.9013C28.6895 33.0859 28.8292 33.2357 29.0015 33.2357H42.1693C42.3415 33.2357 42.4813 33.0859 42.4813 32.9013V31.3677C42.4813 31.183 42.3415 31.0332 42.1693 31.0332ZM41.8572 32.5668H29.3135V31.7021H41.8572V32.5668V32.5668Z" fill="#3F3679"/>
<path d="M42.1708 33.8086H25.4995C25.3273 33.8086 25.1875 33.9584 25.1875 34.1431V35.6764C25.1875 35.861 25.3273 36.0109 25.4995 36.0109H42.1708C42.3431 36.0109 42.4829 35.861 42.4829 35.6764V34.1431C42.4829 33.9584 42.3431 33.8086 42.1708 33.8086ZM41.8588 35.342H25.8116V34.4775H41.8588V35.342Z" fill="#3F3679"/>
<path d="M20.5491 12.9734C20.7318 13.1694 20.9714 13.2673 21.2111 13.2673C21.4507 13.2673 21.6903 13.1694 21.873 12.9734C22.2387 12.5817 22.2387 11.9464 21.873 11.5547L20.1431 9.70001L21.873 7.84556C22.2387 7.4538 22.2387 6.81856 21.873 6.4268C21.5077 6.03482 20.9146 6.03482 20.5493 6.4268L18.1571 8.99052C17.7914 9.38228 17.7914 10.0175 18.1571 10.4093L20.5491 12.9734Z" fill="#3F3679"/>
<path d="M31.1825 12.9737C31.3653 13.1697 31.6047 13.2675 31.8444 13.2675C32.084 13.2675 32.3237 13.1697 32.5063 12.9737L34.8983 10.4095C35.264 10.0177 35.264 9.3825 34.8983 8.99074L32.5063 6.4268C32.141 6.03482 31.5479 6.03482 31.1827 6.4268C30.817 6.81856 30.817 7.4538 31.1827 7.84556L32.9126 9.70001L31.1827 11.5547C30.8168 11.9467 30.8168 12.5821 31.1825 12.9737Z" fill="#3F3679"/>
<path d="M24.5244 14.3936C24.6559 14.4621 24.7949 14.4942 24.9317 14.4942C25.2793 14.4942 25.6132 14.2857 25.7749 13.9278L28.9647 6.86701C29.19 6.36845 28.9955 5.76821 28.5301 5.52673C28.0648 5.28436 27.5048 5.49351 27.2797 5.99252L24.0899 13.0533C23.8646 13.5521 24.0591 14.1521 24.5244 14.3936Z" fill="#3F3679"/>
</g>
<defs>
<clipPath id="clip0_5_207">
<rect width="50" height="50" fill="white"/>
</clipPath>
</defs>
</svg>
