<svg width="50" height="50" viewBox="0 0 50 50" fill="none" xmlns="http://www.w3.org/2000/svg">
<path d="M47.4426 20.534H42.2262V16.2102C42.2253 15.6982 42.0539 15.2012 41.7389 14.7976C41.424 14.394 40.9835 14.1069 40.4871 13.9816V10.125C40.4863 9.29859 40.1577 8.50626 39.5733 7.92187C38.989 7.33747 38.1967 7.00874 37.3703 7.00781H5.35898C4.53258 7.00874 3.74029 7.33747 3.15597 7.92187C2.57164 8.50626 2.24301 9.29859 2.24219 10.125V33.5789C2.24322 34.4052 2.57194 35.1973 3.15624 35.7815C3.74054 36.3658 4.53271 36.6944 5.35898 36.6953H17.2789V40.6203H14.0531C13.5316 40.6203 13.0314 40.8275 12.6627 41.1963C12.2939 41.565 12.0867 42.0652 12.0867 42.5867C12.0867 43.1082 12.2939 43.6084 12.6627 43.9772C13.0314 44.3459 13.5316 44.5531 14.0531 44.5531H47.4426C47.9402 44.5525 48.4172 44.3546 48.7691 44.0027C49.121 43.6508 49.3189 43.1738 49.3195 42.6762V22.4109C49.3189 21.9133 49.121 21.4363 48.7691 21.0844C48.4172 20.7326 47.9402 20.5346 47.4426 20.534V20.534Z" fill="#E6E7E8"/>
<path d="M21.4191 14.6477C21.4191 14.1411 21.6204 13.6552 21.9786 13.297C22.3368 12.9387 22.8227 12.7375 23.3293 12.7375H38.3629C38.4211 12.7375 38.4762 12.7496 38.5336 12.7547V8.5625C38.5336 7.83937 38.2463 7.14586 37.735 6.63453C37.2237 6.1232 36.5302 5.83594 35.807 5.83594H3.79648C3.07342 5.83604 2.38001 6.12335 1.86877 6.63467C1.35752 7.14599 1.07031 7.83944 1.07031 8.5625V32.016C1.07031 32.7391 1.35752 33.4325 1.86877 33.9438C2.38001 34.4552 3.07342 34.7425 3.79648 34.7426H21.4191V14.6477Z" fill="#6DC9F7"/>
<path d="M2.24219 32.018V8.56406C2.24219 7.84104 2.52941 7.14762 3.04066 6.63637C3.55192 6.12511 4.24533 5.83789 4.96836 5.83789H3.79648C3.07346 5.83789 2.38005 6.12511 1.86879 6.63637C1.35753 7.14762 1.07031 7.84104 1.07031 8.56406V32.018C1.07042 32.741 1.35767 33.4343 1.8689 33.9455C2.38014 34.4568 3.07349 34.744 3.79648 34.7441H4.96836C4.24537 34.744 3.55201 34.4568 3.04078 33.9455C2.52955 33.4343 2.24229 32.741 2.24219 32.018V32.018Z" fill="white"/>
<path d="M21.4187 31.6758H18.1445C17.9551 31.6763 17.7736 31.7518 17.6396 31.8857C17.5057 32.0197 17.4302 32.2012 17.4297 32.3906V32.5422C17.4303 32.7316 17.5058 32.913 17.6397 33.047C17.7737 33.1809 17.9551 33.2564 18.1445 33.257H21.4187V31.6758Z" fill="#0089EF"/>
<path d="M21.4199 14.648C21.4199 14.1414 21.6212 13.6556 21.9794 13.2974C22.3376 12.9391 22.8235 12.7379 23.3301 12.7379H36.209V9.85156C36.209 9.43716 36.0444 9.03973 35.7513 8.74671C35.4583 8.45368 35.0609 8.28906 34.6465 8.28906H4.95898C4.54458 8.28906 4.14716 8.45368 3.85413 8.74671C3.5611 9.03973 3.39648 9.43716 3.39648 9.85156V28.5602C3.39648 28.9746 3.5611 29.372 3.85413 29.665C4.14716 29.958 4.54458 30.1227 4.95898 30.1227H21.4199V14.648Z" fill="#D4FBFF"/>
<path d="M21.4195 14.648C21.4195 14.1414 21.6208 13.6556 21.979 13.2974C22.3372 12.9391 22.8231 12.7379 23.3297 12.7379H33.9914V11.0234C33.9914 10.8162 33.9091 10.6175 33.7626 10.471C33.6161 10.3245 33.4174 10.2422 33.2102 10.2422H6.39453C6.18733 10.2422 5.98862 10.3245 5.8421 10.471C5.69559 10.6175 5.61328 10.8162 5.61328 11.0234V16.4059C5.61328 16.6131 5.69559 16.8118 5.8421 16.9583C5.98862 17.1048 6.18733 17.1871 6.39453 17.1871H21.4195V14.648Z" fill="#FFD7E5"/>
<path d="M21.4195 18.4453H16.6504C16.4432 18.4453 16.2445 18.5276 16.098 18.6741C15.9515 18.8206 15.8691 19.0194 15.8691 19.2266V23.4371C15.8691 23.6443 15.9515 23.843 16.098 23.9895C16.2445 24.136 16.4432 24.2184 16.6504 24.2184H21.4195V18.4453Z" fill="#FA759E"/>
<path d="M13.4785 23.4387V19.2266C13.4785 18.7951 13.1287 18.4453 12.6973 18.4453H6.39375C5.96228 18.4453 5.6125 18.7951 5.6125 19.2266V23.4387C5.6125 23.8701 5.96228 24.2199 6.39375 24.2199H12.6973C13.1287 24.2199 13.4785 23.8701 13.4785 23.4387Z" fill="#FA759E"/>
<path d="M34.4227 41.1141V20.8492C34.4227 20.6541 34.4611 20.4609 34.5358 20.2807C34.6106 20.1005 34.7201 19.9368 34.8581 19.7989C34.9962 19.6611 35.16 19.5518 35.3403 19.4773C35.5207 19.4028 35.7139 19.3646 35.909 19.3648H40.2738V14.6484C40.2739 14.3976 40.2245 14.1492 40.1286 13.9175C40.0326 13.6857 39.892 13.4752 39.7146 13.2978C39.5373 13.1204 39.3267 12.9797 39.095 12.8837C38.8633 12.7877 38.6149 12.7383 38.3641 12.7383H23.3301C22.8235 12.7383 22.3376 12.9395 21.9794 13.2978C21.6212 13.656 21.4199 14.1418 21.4199 14.6484V40.6922C21.4199 40.943 21.4693 41.1914 21.5653 41.4231C21.6613 41.6548 21.802 41.8654 21.9794 42.0427C22.1568 42.2201 22.3674 42.3607 22.5991 42.4567C22.8309 42.5526 23.0793 42.602 23.3301 42.602H35.9082C35.7129 42.6021 35.5194 42.5637 35.339 42.489C35.1585 42.4142 34.9946 42.3046 34.8566 42.1664C34.7186 42.0281 34.6092 41.864 34.5348 41.6835C34.4603 41.5029 34.4222 41.3094 34.4227 41.1141V41.1141Z" fill="#6DC9F7"/>
<path d="M21.4195 34.7441H16.1074V39.4504H21.4195V34.7441Z" fill="#6DC9F7"/>
<path d="M21.4189 40.6906V39.4492H12.4904C12.0769 39.4557 11.6824 39.6246 11.3923 39.9194C11.1021 40.2141 10.9395 40.6112 10.9395 41.0248C10.9395 41.4384 11.1021 41.8355 11.3923 42.1302C11.6824 42.425 12.0769 42.5939 12.4904 42.6004H23.3291C23.0783 42.6004 22.8299 42.5511 22.5981 42.4551C22.3664 42.3592 22.1558 42.2185 21.9784 42.0412C21.8011 41.8638 21.6604 41.6533 21.5644 41.4215C21.4684 41.1898 21.4189 40.9415 21.4189 40.6906V40.6906Z" fill="#6DC9F7"/>
<path d="M34.4227 20.8492C34.4227 20.6541 34.4611 20.4609 34.5358 20.2807C34.6106 20.1005 34.7201 19.9368 34.8581 19.7989C34.9962 19.6611 35.16 19.5518 35.3403 19.4773C35.5207 19.4028 35.7139 19.3646 35.909 19.3648H40.2738V15.5684H21.4199V38.5516H34.4227V20.8492Z" fill="#D4FBFF"/>
<path d="M29.9473 30.3738V24.9094C29.9473 24.501 29.6162 24.1699 29.2078 24.1699H23.6121C23.2037 24.1699 22.8727 24.501 22.8727 24.9094V30.3738C22.8727 30.7822 23.2037 31.1133 23.6121 31.1133H29.2078C29.6162 31.1133 29.9473 30.7822 29.9473 30.3738Z" fill="#FA759E"/>
<path d="M34.4223 20.8492C34.4223 20.6541 34.4607 20.4609 34.5354 20.2807C34.6102 20.1005 34.7197 19.9368 34.8577 19.7989C34.9958 19.6611 35.1596 19.5518 35.3399 19.4773C35.5203 19.4028 35.7135 19.3646 35.9086 19.3648H38.8199V18.2551C38.8199 18.059 38.742 17.8709 38.6033 17.7322C38.4647 17.5935 38.2766 17.5156 38.0805 17.5156H23.6121C23.515 17.5156 23.4189 17.5348 23.3292 17.5719C23.2395 17.6091 23.158 17.6636 23.0894 17.7322C23.0207 17.8009 22.9663 17.8824 22.9292 17.9721C22.8921 18.0618 22.873 18.158 22.873 18.2551V22.2395C22.873 22.4355 22.9509 22.6235 23.0895 22.7622C23.2281 22.9008 23.4161 22.9788 23.6121 22.9789H34.4223V20.8492Z" fill="#FFD7E5"/>
<path d="M34.4219 24.1699H32.1145C31.9184 24.1699 31.7304 24.2478 31.5917 24.3864C31.4531 24.525 31.3751 24.7129 31.375 24.909V30.3738C31.375 30.5699 31.4529 30.758 31.5916 30.8967C31.7303 31.0354 31.9183 31.1133 32.1145 31.1133H34.4219V24.1699Z" fill="#FA759E"/>
<path d="M33.1645 13.873H28.5285C28.3747 13.873 28.25 13.9977 28.25 14.1516V14.2105C28.25 14.3644 28.3747 14.4891 28.5285 14.4891H33.1645C33.3183 14.4891 33.443 14.3644 33.443 14.2105V14.1516C33.443 13.9977 33.3183 13.873 33.1645 13.873Z" fill="#0089EF"/>
<path d="M34.6758 14.5195C34.8624 14.5195 35.0137 14.3683 35.0137 14.1816C35.0137 13.995 34.8624 13.8438 34.6758 13.8438C34.4892 13.8438 34.3379 13.995 34.3379 14.1816C34.3379 14.3683 34.4892 14.5195 34.6758 14.5195Z" fill="#0089EF"/>
<path d="M32.4141 39.6562H29.2781C28.9045 39.6562 28.6016 39.9592 28.6016 40.3328V40.4762C28.6016 40.8498 28.9045 41.1527 29.2781 41.1527H32.4141C32.7877 41.1527 33.0906 40.8498 33.0906 40.4762V40.3328C33.0906 39.9592 32.7877 39.6562 32.4141 39.6562Z" fill="#0089EF"/>
<path d="M45.8801 19.3633H35.9082C35.0873 19.3633 34.4219 20.0287 34.4219 20.8496V41.1145C34.4219 41.9353 35.0873 42.6008 35.9082 42.6008H45.8801C46.701 42.6008 47.3664 41.9353 47.3664 41.1145V20.8496C47.3664 20.0287 46.701 19.3633 45.8801 19.3633Z" fill="#6DC9F7"/>
<path d="M47.3672 39.4504V21.5664H34.4227V39.4504H47.3672Z" fill="#D4FBFF"/>
<path d="M45.4141 30.466V24.3008C45.4141 23.8693 45.0643 23.5195 44.6328 23.5195H37.157C36.7256 23.5195 36.3758 23.8693 36.3758 24.3008V30.466C36.3758 30.8975 36.7256 31.2473 37.157 31.2473H44.6328C45.0643 31.2473 45.4141 30.8975 45.4141 30.466Z" fill="#FA759E"/>
<path d="M42.6992 20.248H39.0918C38.9721 20.248 38.875 20.3451 38.875 20.4648V20.5105C38.875 20.6303 38.9721 20.7273 39.0918 20.7273H42.6992C42.819 20.7273 42.916 20.6303 42.916 20.5105V20.4648C42.916 20.3451 42.819 20.248 42.6992 20.248Z" fill="#0089EF"/>
<path d="M43.873 20.2246C43.8209 20.2245 43.77 20.2399 43.7266 20.2688C43.6833 20.2977 43.6495 20.3388 43.6295 20.387C43.6095 20.4351 43.6043 20.488 43.6144 20.5392C43.6246 20.5903 43.6496 20.6372 43.6865 20.6741C43.7233 20.7109 43.7703 20.736 43.8214 20.7461C43.8725 20.7563 43.9255 20.751 43.9736 20.7311C44.0217 20.7111 44.0628 20.6773 44.0917 20.6339C44.1206 20.5906 44.136 20.5396 44.1359 20.4875C44.1358 20.4178 44.1081 20.351 44.0588 20.3017C44.0095 20.2524 43.9427 20.2247 43.873 20.2246V20.2246Z" fill="#0089EF"/>
<path d="M39.6742 40.3086H42.1145C42.2541 40.3086 42.388 40.3641 42.4868 40.4628C42.5855 40.5616 42.641 40.6955 42.641 40.8352V40.9469C42.641 41.0864 42.5856 41.2203 42.4869 41.3189C42.3882 41.4176 42.2544 41.473 42.1148 41.473H39.6746C39.5351 41.473 39.4012 41.4176 39.3025 41.3189C39.2039 41.2203 39.1484 41.0864 39.1484 40.9469V40.8352C39.1484 40.6955 39.2039 40.5616 39.3027 40.4628C39.4014 40.3641 39.5353 40.3086 39.675 40.3086H39.6742Z" fill="#0089EF"/>
<path d="M23.8633 6.22656H26.8906C26.9942 6.22656 27.0936 6.18541 27.1668 6.11215C27.2401 6.03889 27.2813 5.93954 27.2813 5.83594C27.2813 5.73234 27.2401 5.63298 27.1668 5.55972C27.0936 5.48647 26.9942 5.44531 26.8906 5.44531H23.8633C23.7597 5.44531 23.6603 5.48647 23.5871 5.55972C23.5138 5.63298 23.4727 5.73234 23.4727 5.83594C23.4727 5.93954 23.5138 6.03889 23.5871 6.11215C23.6603 6.18541 23.7597 6.22656 23.8633 6.22656V6.22656Z" fill="#3A2C60"/>
<path d="M13.0891 25.4492H6.00391C5.90031 25.4492 5.80095 25.4904 5.72769 25.5636C5.65444 25.6369 5.61328 25.7362 5.61328 25.8398C5.61328 25.9434 5.65444 26.0428 5.72769 26.1161C5.80095 26.1893 5.90031 26.2305 6.00391 26.2305H13.0891C13.1927 26.2305 13.292 26.1893 13.3653 26.1161C13.4385 26.0428 13.4797 25.9434 13.4797 25.8398C13.4797 25.7362 13.4385 25.6369 13.3653 25.5636C13.292 25.4904 13.1927 25.4492 13.0891 25.4492Z" fill="#3A2C60"/>
<path d="M13.0891 27.4023H6.00391C5.90031 27.4023 5.80095 27.4435 5.72769 27.5168C5.65444 27.59 5.61328 27.6894 5.61328 27.793C5.61328 27.8966 5.65444 27.9959 5.72769 28.0692C5.80095 28.1424 5.90031 28.1836 6.00391 28.1836H13.0891C13.1927 28.1836 13.292 28.1424 13.3653 28.0692C13.4385 27.9959 13.4797 27.8966 13.4797 27.793C13.4797 27.6894 13.4385 27.59 13.3653 27.5168C13.292 27.4435 13.1927 27.4023 13.0891 27.4023Z" fill="#3A2C60"/>
<path d="M29.5777 32.2559H23.2422C23.1386 32.2559 23.0392 32.297 22.966 32.3703C22.8927 32.4435 22.8516 32.5429 22.8516 32.6465C22.8516 32.7501 22.8927 32.8494 22.966 32.9227C23.0392 32.996 23.1386 33.0371 23.2422 33.0371H29.5777C29.6813 33.0371 29.7807 32.996 29.854 32.9227C29.9272 32.8494 29.9684 32.7501 29.9684 32.6465C29.9684 32.5429 29.9272 32.4435 29.854 32.3703C29.7807 32.297 29.6813 32.2559 29.5777 32.2559Z" fill="#3A2C60"/>
<path d="M29.5777 34.1035H23.2422C23.1386 34.1035 23.0392 34.1447 22.966 34.2179C22.8927 34.2912 22.8516 34.3905 22.8516 34.4941C22.8516 34.5977 22.8927 34.6971 22.966 34.7704C23.0392 34.8436 23.1386 34.8848 23.2422 34.8848H29.5777C29.6813 34.8848 29.7807 34.8436 29.854 34.7704C29.9272 34.6971 29.9684 34.5977 29.9684 34.4941C29.9684 34.3905 29.9272 34.2912 29.854 34.2179C29.7807 34.1447 29.6813 34.1035 29.5777 34.1035Z" fill="#3A2C60"/>
<path d="M29.5777 35.9531H23.2422C23.1386 35.9531 23.0392 35.9943 22.966 36.0675C22.8927 36.1408 22.8516 36.2401 22.8516 36.3438C22.8516 36.4474 22.8927 36.5467 22.966 36.62C23.0392 36.6932 23.1386 36.7344 23.2422 36.7344H29.5777C29.6813 36.7344 29.7807 36.6932 29.854 36.62C29.9272 36.5467 29.9684 36.4474 29.9684 36.3438C29.9684 36.2401 29.9272 36.1408 29.854 36.0675C29.7807 35.9943 29.6813 35.9531 29.5777 35.9531Z" fill="#3A2C60"/>
<path d="M36.7656 33.6484H45.0227C45.1263 33.6484 45.2256 33.6073 45.2989 33.534C45.3721 33.4608 45.4133 33.3614 45.4133 33.2578C45.4133 33.1542 45.3721 33.0549 45.2989 32.9816C45.2256 32.9083 45.1263 32.8672 45.0227 32.8672H36.7656C36.662 32.8672 36.5627 32.9083 36.4894 32.9816C36.4162 33.0549 36.375 33.1542 36.375 33.2578C36.375 33.3614 36.4162 33.4608 36.4894 33.534C36.5627 33.6073 36.662 33.6484 36.7656 33.6484Z" fill="#3A2C60"/>
<path d="M45.0227 34.8203H36.7656C36.662 34.8203 36.5627 34.8615 36.4894 34.9347C36.4162 35.008 36.375 35.1073 36.375 35.2109C36.375 35.3145 36.4162 35.4139 36.4894 35.4872C36.5627 35.5604 36.662 35.6016 36.7656 35.6016H45.0227C45.1263 35.6016 45.2256 35.5604 45.2989 35.4872C45.3721 35.4139 45.4133 35.3145 45.4133 35.2109C45.4133 35.1073 45.3721 35.008 45.2989 34.9347C45.2256 34.8615 45.1263 34.8203 45.0227 34.8203Z" fill="#3A2C60"/>
<path d="M45.0227 36.7734H36.7656C36.662 36.7734 36.5627 36.8146 36.4894 36.8878C36.4162 36.9611 36.375 37.0605 36.375 37.1641C36.375 37.2677 36.4162 37.367 36.4894 37.4403C36.5627 37.5135 36.662 37.5547 36.7656 37.5547H45.0227C45.1263 37.5547 45.2256 37.5135 45.2989 37.4403C45.3721 37.367 45.4133 37.2677 45.4133 37.1641C45.4133 37.0605 45.3721 36.9611 45.2989 36.8878C45.2256 36.8146 45.1263 36.7734 45.0227 36.7734Z" fill="#3A2C60"/>
<path d="M30.6838 16.7035H27.2211V13.1047C27.2203 12.6786 27.1063 12.2651 26.8972 11.9292C26.6882 11.5933 26.3959 11.3543 26.0665 11.2498V8.03983C26.0659 7.35199 25.8478 6.69251 25.4599 6.20611C25.072 5.7197 24.5461 5.44609 23.9975 5.44531H19.1157C19.047 5.44531 18.981 5.47957 18.9324 5.54054C18.8838 5.60151 18.8564 5.68421 18.8564 5.77044C18.8564 5.85667 18.8838 5.93937 18.9324 6.00034C18.981 6.06131 19.047 6.09557 19.1157 6.09557H23.9973C24.4083 6.09617 24.8024 6.30122 25.0931 6.66572C25.3837 7.03021 25.5472 7.5244 25.5476 8.03983V11.1884H24.5229V9.11243C24.5224 8.68144 24.3857 8.26825 24.1427 7.9635C23.8996 7.65875 23.5701 7.48731 23.2264 7.48679H3.51977C3.17605 7.48731 2.84652 7.65875 2.60347 7.9635C2.36042 8.26825 2.2237 8.68144 2.22328 9.11243V24.6841C2.2237 25.1151 2.36042 25.5283 2.60347 25.833C2.84652 26.1378 3.17605 26.3092 3.51977 26.3097H14.1873V29.5048H2.74862C2.33762 29.5043 1.94356 29.2993 1.65291 28.935C1.36226 28.5706 1.19876 28.0765 1.19828 27.5612V8.03983C1.19869 7.5244 1.36216 7.03021 1.6528 6.66572C1.94345 6.30122 2.33755 6.09617 2.74862 6.09557H15.0536C15.1223 6.09557 15.1883 6.06131 15.2369 6.00034C15.2856 5.93937 15.3129 5.85667 15.3129 5.77044C15.3129 5.68421 15.2856 5.60151 15.2369 5.54054C15.1883 5.47957 15.1223 5.44531 15.0536 5.44531H2.74862C2.20007 5.44617 1.67419 5.71981 1.28633 6.2062C0.898471 6.69259 0.680305 7.35202 0.679688 8.03983V27.5612C0.680374 28.2489 0.898579 28.9082 1.28644 29.3945C1.6743 29.8807 2.20014 30.1543 2.74862 30.155H10.6611V33.4219H8.5198C8.17361 33.4219 7.84161 33.5944 7.59681 33.9013C7.35202 34.2082 7.2145 34.6245 7.2145 35.0586C7.2145 35.4927 7.35202 35.909 7.59681 36.2159C7.84161 36.5229 8.17361 36.6953 8.5198 36.6953H30.6838C31.0141 36.6948 31.3307 36.53 31.5643 36.2372C31.7979 35.9443 31.9293 35.5472 31.9297 35.1331V18.2658C31.9293 17.8516 31.7979 17.4545 31.5643 17.1617C31.3307 16.8688 31.0141 16.704 30.6838 16.7035V16.7035ZM14.7059 34.7806V33.325H22.8185V35.1331C22.8191 35.4611 22.9027 35.7804 23.0573 36.0451H15.7145C15.4472 36.0442 15.1911 35.9107 15.002 35.6737C14.813 35.4367 14.7065 35.1155 14.7059 34.7803V34.7806ZM23.3371 19.1875H31.4111V33.4226H23.3371V19.1875ZM31.4111 18.2658V18.5372H23.3371V18.2658C23.3376 18.0242 23.4145 17.7928 23.5508 17.6222C23.6871 17.4516 23.8718 17.3557 24.0644 17.3554H30.6838C30.8764 17.3557 31.0611 17.4516 31.1974 17.6222C31.3337 17.7928 31.4105 18.0242 31.4111 18.2658V18.2658ZM24.0644 16.7051C23.7341 16.7056 23.4174 16.8703 23.1838 17.1632C22.9502 17.4561 22.8188 17.8532 22.8185 18.2674V27.7611H21.3008C21.2321 27.7611 21.1661 27.7954 21.1175 27.8564C21.0688 27.9173 21.0415 28 21.0415 28.0863C21.0415 28.1725 21.0688 28.2552 21.1175 28.3162C21.1661 28.3771 21.2321 28.4114 21.3008 28.4114H22.8185V29.2996H21.3008C21.2321 29.2996 21.1661 29.3339 21.1175 29.3949C21.0688 29.4558 21.0415 29.5385 21.0415 29.6248C21.0415 29.711 21.0688 29.7937 21.1175 29.8547C21.1661 29.9156 21.2321 29.9499 21.3008 29.9499H22.8185V30.8381H21.3008C21.2321 30.8381 21.1661 30.8724 21.1175 30.9334C21.0688 30.9943 21.0415 31.077 21.0415 31.1633C21.0415 31.2495 21.0688 31.3322 21.1175 31.3932C21.1661 31.4541 21.2321 31.4884 21.3008 31.4884H22.8185V32.6764H14.7059V14.1955H26.7025V16.7035L24.0644 16.7051ZM26.7025 13.1047V13.5465H14.7059V13.1047C14.7065 12.7695 14.813 12.4483 15.002 12.2113C15.1911 11.9743 15.4472 11.8408 15.7145 11.8399H25.6936C25.9609 11.8407 26.2172 11.9742 26.4062 12.2112C26.5953 12.4482 26.7018 12.7695 26.7025 13.1047V13.1047ZM3.52133 25.6608C3.31502 25.6608 3.11716 25.558 2.97127 25.3751C2.82539 25.1922 2.74343 24.9441 2.74343 24.6854V9.11243C2.74343 8.85374 2.82539 8.60565 2.97127 8.42273C3.11716 8.23981 3.31502 8.13705 3.52133 8.13705H23.2279C23.4342 8.13705 23.6321 8.23981 23.778 8.42273C23.9239 8.60565 24.0058 8.85374 24.0058 9.11243V11.1884H15.7145C15.3097 11.1892 14.9216 11.3913 14.6353 11.7502C14.3491 12.1092 14.1879 12.5957 14.1873 13.1034V22.0945H11.0215C10.9527 22.0945 10.8868 22.1287 10.8382 22.1897C10.7895 22.2507 10.7622 22.3334 10.7622 22.4196C10.7622 22.5058 10.7895 22.5885 10.8382 22.6495C10.8868 22.7105 10.9527 22.7447 11.0215 22.7447H14.1873V23.7201H11.0215C10.9527 23.7201 10.8868 23.7544 10.8382 23.8153C10.7895 23.8763 10.7622 23.959 10.7622 24.0452C10.7622 24.1315 10.7895 24.2142 10.8382 24.2751C10.8868 24.3361 10.9527 24.3704 11.0215 24.3704H14.1873V25.6595L3.52133 25.6608ZM11.1797 30.155H14.1875V33.4219H11.1797V30.155ZM7.73335 35.0583C7.73363 34.7969 7.81657 34.5462 7.964 34.3614C8.11143 34.1765 8.31131 34.0725 8.5198 34.0722H14.1873V34.7803C14.1874 35.2465 14.3239 35.6965 14.5708 36.0451H8.5198C8.31124 36.0446 8.11132 35.9405 7.96389 35.7555C7.81647 35.5705 7.73356 35.3198 7.73335 35.0583V35.0583ZM30.6838 36.0451H24.0644C23.8716 36.0448 23.6867 35.9486 23.5503 35.7777C23.414 35.6067 23.3373 35.3749 23.3371 35.1331V34.0728H31.4111V35.1331C31.4109 35.3749 31.3342 35.6067 31.1978 35.7777C31.0615 35.9486 30.8766 36.0448 30.6838 36.0451V36.0451Z" fill="#3A2C60"/>
</svg>
