<svg width="50" height="50" viewBox="0 0 50 50" fill="none" xmlns="http://www.w3.org/2000/svg">
<path d="M39.4531 3.57227H10.5469V44.2855H39.4531V3.57227Z" fill="#F46275"/>
<path d="M13.6393 3.57227H10.5469V44.2855H13.6393V3.57227Z" fill="#F43075"/>
<path d="M39.4537 3.57227H36.3613V44.2855H39.4537V3.57227Z" fill="#F48875"/>
<path d="M12.5332 5.43418L12.5332 42.4219H37.4656V5.43418H12.5332Z" fill="#63BCE7"/>
<path d="M15.6582 5.43359H12.5332V42.4213H15.6582V5.43359Z" fill="#6377E7"/>
<path d="M37.4668 5.43359H34.3418V42.4213H37.4668V5.43359Z" fill="#63E2E7"/>
<path d="M25.0004 34.4734C25.6543 34.4734 26.1844 33.9434 26.1844 33.2895C26.1844 32.6356 25.6543 32.1055 25.0004 32.1055C24.3465 32.1055 23.8164 32.6356 23.8164 33.2895C23.8164 33.9434 24.3465 34.4734 25.0004 34.4734Z" fill="#F8AF23"/>
<path d="M20.8756 38.218C21.5296 38.218 22.0598 37.6878 22.0598 37.0338C22.0598 36.3798 21.5296 35.8496 20.8756 35.8496C20.2216 35.8496 19.6914 36.3798 19.6914 37.0338C19.6914 37.6878 20.2216 38.218 20.8756 38.218Z" fill="#F8AF23"/>
<path d="M29.1256 38.218C29.7796 38.218 30.3098 37.6878 30.3098 37.0338C30.3098 36.3798 29.7796 35.8496 29.1256 35.8496C28.4716 35.8496 27.9414 36.3798 27.9414 37.0338C27.9414 37.6878 28.4716 38.218 29.1256 38.218Z" fill="#F8AF23"/>
<path d="M20.8756 30.7297C21.5296 30.7297 22.0598 30.1995 22.0598 29.5455C22.0598 28.8915 21.5296 28.3613 20.8756 28.3613C20.2216 28.3613 19.6914 28.8915 19.6914 29.5455C19.6914 30.1995 20.2216 30.7297 20.8756 30.7297Z" fill="#F8AF23"/>
<path d="M29.1256 30.7297C29.7796 30.7297 30.3098 30.1995 30.3098 29.5455C30.3098 28.8915 29.7796 28.3613 29.1256 28.3613C28.4716 28.3613 27.9414 28.8915 27.9414 29.5455C27.9414 30.1995 28.4716 30.7297 29.1256 30.7297Z" fill="#F8AF23"/>
<path d="M18.0357 34.4738C18.6897 34.4738 19.2199 33.9437 19.2199 33.2896C19.2199 32.6356 18.6897 32.1055 18.0357 32.1055C17.3817 32.1055 16.8516 32.6356 16.8516 33.2896C16.8516 33.9437 17.3817 34.4738 18.0357 34.4738Z" fill="#F8AF23"/>
<path d="M31.9635 34.4738C32.6175 34.4738 33.1477 33.9437 33.1477 33.2896C33.1477 32.6356 32.6175 32.1055 31.9635 32.1055C31.3095 32.1055 30.7793 32.6356 30.7793 33.2896C30.7793 33.9437 31.3095 34.4738 31.9635 34.4738Z" fill="#F8AF23"/>
<path d="M25.0004 26.9852C25.6543 26.9852 26.1844 26.4551 26.1844 25.8012C26.1844 25.1473 25.6543 24.6172 25.0004 24.6172C24.3465 24.6172 23.8164 25.1473 23.8164 25.8012C23.8164 26.4551 24.3465 26.9852 25.0004 26.9852Z" fill="#F8AF23"/>
<path d="M18.0357 26.9855C18.6897 26.9855 19.2199 26.4554 19.2199 25.8014C19.2199 25.1474 18.6897 24.6172 18.0357 24.6172C17.3817 24.6172 16.8516 25.1474 16.8516 25.8014C16.8516 26.4554 17.3817 26.9855 18.0357 26.9855Z" fill="#F8AF23"/>
<path d="M31.9635 26.9855C32.6175 26.9855 33.1477 26.4554 33.1477 25.8014C33.1477 25.1474 32.6175 24.6172 31.9635 24.6172C31.3095 24.6172 30.7793 25.1474 30.7793 25.8014C30.7793 26.4554 31.3095 26.9855 31.9635 26.9855Z" fill="#F8AF23"/>
<path d="M10.5473 22.9891C14.4685 22.9891 17.6473 19.8103 17.6473 15.8891C17.6473 11.9678 14.4685 8.78906 10.5473 8.78906C6.62604 8.78906 3.44727 11.9678 3.44727 15.8891C3.44727 19.8103 6.62604 22.9891 10.5473 22.9891Z" fill="#F8AF23"/>
<path d="M6.57273 15.8891C6.57307 14.2777 7.12142 12.7144 8.12772 11.4559C9.13402 10.1973 10.5384 9.31849 12.1102 8.96367C11.0711 8.72886 9.99243 8.7309 8.95418 8.96965C7.91594 9.20839 6.94473 9.67772 6.11253 10.3429C5.28033 11.008 4.60848 11.8519 4.14677 12.8119C3.68505 13.772 3.44531 14.8237 3.44531 15.8891C3.44531 16.9544 3.68505 18.0061 4.14677 18.9662C4.60848 19.9263 5.28033 20.7701 6.11253 21.4353C6.94473 22.1004 7.91594 22.5697 8.95418 22.8085C9.99243 23.0472 11.0711 23.0493 12.1102 22.8145C10.5384 22.4596 9.13402 21.5808 8.12772 20.3223C7.12142 19.0638 6.57307 17.5004 6.57273 15.8891V15.8891Z" fill="#F87023"/>
<path d="M39.4535 22.9891C43.3747 22.9891 46.5535 19.8103 46.5535 15.8891C46.5535 11.9678 43.3747 8.78906 39.4535 8.78906C35.5323 8.78906 32.3535 11.9678 32.3535 15.8891C32.3535 19.8103 35.5323 22.9891 39.4535 22.9891Z" fill="#F8AF23"/>
<path d="M39.4531 8.78906C38.9274 8.78939 38.4034 8.84795 37.8906 8.96367C39.4627 9.3181 40.8674 10.1968 41.8738 11.4554C42.8802 12.714 43.4285 14.2776 43.4285 15.8891C43.4285 17.5006 42.8802 19.0641 41.8738 20.3227C40.8674 21.5813 39.4627 22.46 37.8906 22.8145C38.8649 23.0343 39.8745 23.0462 40.8537 22.8493C41.8328 22.6524 42.7594 22.2511 43.5728 21.6717C44.3863 21.0922 45.0684 20.3477 45.5745 19.4867C46.0806 18.6257 46.3994 17.6676 46.51 16.675C46.6205 15.6824 46.5204 14.6776 46.2162 13.7263C45.912 12.775 45.4105 11.8986 44.7445 11.1544C44.0785 10.4101 43.263 9.81475 42.3512 9.40717C41.4394 8.99959 40.4519 8.78897 39.4531 8.78906V8.78906Z" fill="#F8D323"/>
<path d="M9.61484 15.7129H11.4785C12.1238 15.7129 12.7427 15.9692 13.199 16.4255C13.6553 16.8818 13.9117 17.5006 13.9117 18.1459V20.3838H7.18164V18.1459C7.18169 17.5006 7.43807 16.8818 7.89438 16.4255C8.35069 15.9692 8.96955 15.7129 9.61484 15.7129V15.7129Z" fill="#63BCE7"/>
<path d="M10.5465 15.7141C11.7393 15.7141 12.7062 14.7471 12.7062 13.5543C12.7062 12.3615 11.7393 11.3945 10.5465 11.3945C9.35368 11.3945 8.38672 12.3615 8.38672 13.5543C8.38672 14.7471 9.35368 15.7141 10.5465 15.7141Z" fill="#9E9E9E"/>
<path d="M38.5211 15.7129H40.3848C41.0301 15.7129 41.649 15.9692 42.1053 16.4256C42.5616 16.8819 42.818 17.5008 42.818 18.1461V20.384H36.0879V18.1459C36.0879 17.5006 36.3443 16.8818 36.8006 16.4255C37.2569 15.9692 37.8758 15.7129 38.5211 15.7129V15.7129Z" fill="#63BCE7"/>
<path d="M39.4527 15.7141C40.6455 15.7141 41.6125 14.7471 41.6125 13.5543C41.6125 12.3615 40.6455 11.3945 39.4527 11.3945C38.2599 11.3945 37.293 12.3615 37.293 13.5543C37.293 14.7471 38.2599 15.7141 39.4527 15.7141Z" fill="#9E9E9E"/>
<path d="M5.33594 46.1348H1.82031C1.74261 46.1348 1.66809 46.1656 1.61315 46.2206C1.55821 46.2755 1.52734 46.35 1.52734 46.4277C1.52734 46.5054 1.55821 46.58 1.61315 46.6349C1.66809 46.6898 1.74261 46.7207 1.82031 46.7207H5.33594C5.41364 46.7207 5.48816 46.6898 5.5431 46.6349C5.59804 46.58 5.62891 46.5054 5.62891 46.4277C5.62891 46.35 5.59804 46.2755 5.5431 46.2206C5.48816 46.1656 5.41364 46.1348 5.33594 46.1348Z" fill="#3F3679"/>
<path d="M48.1797 46.1348H44.6641C44.5864 46.1348 44.5118 46.1656 44.4569 46.2206C44.402 46.2755 44.3711 46.35 44.3711 46.4277C44.3711 46.5054 44.402 46.58 44.4569 46.6349C44.5118 46.6898 44.5864 46.7207 44.6641 46.7207H48.1797C48.2574 46.7207 48.3319 46.6898 48.3868 46.6349C48.4418 46.58 48.4727 46.5054 48.4727 46.4277C48.4727 46.35 48.4418 46.2755 48.3868 46.2206C48.3319 46.1656 48.2574 46.1348 48.1797 46.1348V46.1348Z" fill="#3F3679"/>
<path d="M42.6715 46.1348H7.32812C7.25042 46.1348 7.17591 46.1656 7.12096 46.2206C7.06602 46.2755 7.03516 46.35 7.03516 46.4277C7.03516 46.5054 7.06602 46.58 7.12096 46.6349C7.17591 46.6898 7.25042 46.7207 7.32812 46.7207H42.6715C42.7492 46.7207 42.8237 46.6898 42.8786 46.6349C42.9336 46.58 42.9645 46.5054 42.9645 46.4277C42.9645 46.35 42.9336 46.2755 42.8786 46.2206C42.8237 46.1656 42.7492 46.1348 42.6715 46.1348Z" fill="#3F3679"/>
<path d="M1.82031 44.5783H48.1797C48.2574 44.5783 48.3319 44.5475 48.3868 44.4925C48.4418 44.4376 48.4726 44.3631 48.4726 44.2854C48.4726 44.2077 48.4418 44.1331 48.3868 44.0782C48.3319 44.0233 48.2574 43.9924 48.1797 43.9924H39.7461V23.275C41.6543 23.1996 43.4594 22.3885 44.7828 21.0117C46.1063 19.6349 46.8455 17.7993 46.8455 15.8896C46.8455 13.9798 46.1063 12.1442 44.7828 10.7674C43.4594 9.39058 41.6543 8.57949 39.7461 8.5041V3.57227C39.7461 3.49457 39.7152 3.42005 39.6603 3.36511C39.6053 3.31016 39.5308 3.2793 39.4531 3.2793H10.5469C10.4692 3.2793 10.3947 3.31016 10.3397 3.36511C10.2848 3.42005 10.2539 3.49457 10.2539 3.57227V8.50391C8.34564 8.5793 6.54063 9.39039 5.21715 10.7672C3.89368 12.144 3.15448 13.9796 3.15448 15.8894C3.15448 17.7991 3.89368 19.6347 5.21715 21.0115C6.54063 22.3883 8.34564 23.1994 10.2539 23.2748V43.9924H1.82031C1.74261 43.9924 1.66809 44.0233 1.61315 44.0782C1.55821 44.1331 1.52734 44.2077 1.52734 44.2854C1.52734 44.3631 1.55821 44.4376 1.61315 44.4925C1.66809 44.5475 1.74261 44.5783 1.82031 44.5783ZM14.1361 22.3494H17.743V24.3533C17.4585 24.4114 17.1974 24.5519 16.9921 24.7572C16.7868 24.9625 16.6464 25.2236 16.5883 25.508H12.8268V22.9209C13.2807 22.7734 13.7193 22.582 14.1361 22.3494V22.3494ZM16.173 20.6775H17.743V21.7635H15.0281C15.4471 21.443 15.8309 21.079 16.173 20.6775ZM27.2576 5.72793V7.00488H22.7424V5.72793H27.2576ZM22.7426 5.14199V3.86523H27.2576V5.14199H22.7426ZM22.4496 7.59082H24.707V9.18281C24.707 9.26051 24.7379 9.33503 24.7928 9.38997C24.8478 9.44492 24.9223 9.47578 25 9.47578C25.0777 9.47578 25.1522 9.44492 25.2072 9.38997C25.2621 9.33503 25.293 9.26051 25.293 9.18281V7.59062H27.5506C27.6283 7.59062 27.7028 7.55976 27.7577 7.50482C27.8127 7.44987 27.8435 7.37536 27.8435 7.29766V5.72793H37.1732V8.85781C36.1246 9.19974 35.1656 9.77183 34.3666 10.5322C34.358 10.5322 34.35 10.5297 34.3412 10.5297H15.6309C14.8323 9.77051 13.8743 9.19931 12.8268 8.85781V5.72793H22.1564V7.29785C22.1565 7.37552 22.1874 7.44999 22.2423 7.50489C22.2973 7.55979 22.3717 7.59062 22.4494 7.59062L22.4496 7.59082ZM33.8146 11.1156C33.0418 12.0255 32.5014 13.1094 32.24 14.2742H17.76C17.4985 13.1094 16.9582 12.0255 16.1853 11.1156H33.8146ZM17.8666 14.8602H32.1334C31.9829 15.9181 32.0651 16.9961 32.3742 18.0189H17.6258C17.9349 16.9961 18.0171 15.9181 17.8666 14.8602V14.8602ZM17.4219 18.6049H32.5781C32.7859 19.1293 33.0532 19.6281 33.3746 20.0916H31.9633C31.8856 20.0916 31.8111 20.1225 31.7561 20.1774C31.7012 20.2324 31.6703 20.3069 31.6703 20.3846V21.7635H18.3289V20.3846C18.3289 20.3069 18.298 20.2324 18.2431 20.1774C18.1882 20.1225 18.1136 20.0916 18.0359 20.0916H16.6246C16.9463 19.6281 17.2138 19.1293 17.4219 18.6049V18.6049ZM34.9723 21.7635H32.2574V20.6775H33.8273C34.1692 21.079 34.5526 21.443 34.9713 21.7635H34.9723ZM30.5736 36.742C30.5061 36.4079 30.325 36.1074 30.0611 35.8915C29.7973 35.6757 29.4669 35.5578 29.126 35.5578C28.7851 35.5578 28.4547 35.6757 28.1908 35.8915C27.9269 36.1074 27.7459 36.4079 27.6783 36.742H22.3227C22.2551 36.4079 22.074 36.1074 21.8102 35.8915C21.5463 35.6757 21.2159 35.5578 20.875 35.5578C20.5341 35.5578 20.2037 35.6757 19.9398 35.8915C19.676 36.1074 19.4949 36.4079 19.4273 36.742H12.8258V33.5834H16.5883C16.6558 33.9175 16.8369 34.218 17.1008 34.4339C17.3646 34.6497 17.695 34.7676 18.0359 34.7676C18.3768 34.7676 18.7072 34.6497 18.9711 34.4339C19.235 34.218 19.416 33.9175 19.4836 33.5834H23.5523C23.6199 33.9175 23.801 34.218 24.0648 34.4339C24.3287 34.6497 24.6591 34.7676 25 34.7676C25.3409 34.7676 25.6713 34.6497 25.9352 34.4339C26.199 34.218 26.3801 33.9175 26.4477 33.5834H30.5164C30.584 33.9175 30.765 34.218 31.0289 34.4339C31.2928 34.6497 31.6232 34.7676 31.9641 34.7676C32.305 34.7676 32.6354 34.6497 32.8992 34.4339C33.1631 34.218 33.3441 33.9175 33.4117 33.5834H37.173V36.742H30.5736ZM30.0172 37.035C30.0172 37.2112 29.965 37.3836 29.8671 37.5302C29.7692 37.6768 29.63 37.791 29.4671 37.8585C29.3043 37.926 29.125 37.9436 28.9521 37.9093C28.7793 37.8749 28.6204 37.79 28.4958 37.6653C28.3711 37.5407 28.2863 37.3819 28.2519 37.209C28.2175 37.0361 28.2352 36.8569 28.3026 36.694C28.3701 36.5312 28.4844 36.392 28.631 36.2941C28.7776 36.1961 28.9499 36.1439 29.1262 36.1439C29.3622 36.1446 29.5883 36.2387 29.7551 36.4057C29.9219 36.5727 30.0157 36.7989 30.016 37.035H30.0172ZM21.7674 37.035C21.7674 37.2112 21.7152 37.3836 21.6173 37.5302C21.5194 37.6768 21.3802 37.791 21.2173 37.8585C21.0545 37.926 20.8752 37.9436 20.7023 37.9093C20.5295 37.8749 20.3706 37.79 20.246 37.6653C20.1213 37.5407 20.0365 37.3819 20.0021 37.209C19.9677 37.0361 19.9854 36.8569 20.0528 36.694C20.1203 36.5312 20.2346 36.392 20.3812 36.2941C20.5277 36.1961 20.7001 36.1439 20.8764 36.1439C21.1124 36.1446 21.3385 36.2387 21.5053 36.4057C21.6721 36.5727 21.7659 36.7989 21.7662 37.035H21.7674ZM16.5883 26.0941C16.6558 26.4283 16.8369 26.7288 17.1008 26.9446C17.3646 27.1605 17.695 27.2784 18.0359 27.2784C18.3768 27.2784 18.7072 27.1605 18.9711 26.9446C19.235 26.7288 19.416 26.4283 19.4836 26.0941H23.5523C23.6199 26.4283 23.801 26.7288 24.0648 26.9446C24.3287 27.1605 24.6591 27.2784 25 27.2784C25.3409 27.2784 25.6713 27.1605 25.9352 26.9446C26.199 26.7288 26.3801 26.4283 26.4477 26.0941H30.5164C30.584 26.4283 30.765 26.7288 31.0289 26.9446C31.2928 27.1605 31.6232 27.2784 31.9641 27.2784C32.305 27.2784 32.6354 27.1605 32.8992 26.9446C33.1631 26.7288 33.3441 26.4283 33.4117 26.0941H37.173V29.2527H30.5715C30.5039 28.9186 30.3228 28.6181 30.059 28.4023C29.7951 28.1864 29.4647 28.0685 29.1238 28.0685C28.7829 28.0685 28.4525 28.1864 28.1887 28.4023C27.9248 28.6181 27.7437 28.9186 27.6762 29.2527H22.3227C22.2551 28.9186 22.074 28.6181 21.8102 28.4023C21.5463 28.1864 21.2159 28.0685 20.875 28.0685C20.5341 28.0685 20.2037 28.1864 19.9398 28.4023C19.676 28.6181 19.4949 28.9186 19.4273 29.2527H12.8258V26.0941H16.5883ZM31.9641 24.9102C32.1403 24.9102 32.3125 24.9624 32.4591 25.0603C32.6056 25.1582 32.7198 25.2974 32.7872 25.4602C32.8547 25.623 32.8723 25.8022 32.8379 25.975C32.8036 26.1478 32.7187 26.3066 32.5941 26.4312C32.4695 26.5558 32.3107 26.6407 32.1379 26.6751C31.965 26.7094 31.7859 26.6918 31.6231 26.6244C31.4603 26.5569 31.3211 26.4427 31.2232 26.2962C31.1253 26.1497 31.073 25.9774 31.073 25.8012C31.0733 25.5649 31.1672 25.3384 31.3343 25.1713C31.5013 25.0043 31.7278 24.9103 31.9641 24.91V24.9102ZM31.6711 24.3535C31.3866 24.4116 31.1255 24.5521 30.9203 24.7574C30.715 24.9627 30.5745 25.2238 30.5164 25.5082H26.4477C26.3801 25.1741 26.199 24.8736 25.9352 24.6577C25.6713 24.4419 25.3409 24.324 25 24.324C24.6591 24.324 24.3287 24.4419 24.0648 24.6577C23.801 24.8736 23.6199 25.1741 23.5523 25.5082H19.4836C19.4255 25.2238 19.285 24.9627 19.0797 24.7574C18.8744 24.5521 18.6133 24.4116 18.3289 24.3535V22.3496H31.6713L31.6711 24.3535ZM25.891 25.8012C25.891 25.9774 25.8387 26.1496 25.7408 26.2961C25.6428 26.4426 25.5037 26.5568 25.3408 26.6242C25.178 26.6916 24.9989 26.7093 24.826 26.6748C24.6532 26.6404 24.4945 26.5556 24.3699 26.4309C24.2453 26.3063 24.1604 26.1476 24.1261 25.9747C24.0917 25.8019 24.1094 25.6228 24.1768 25.46C24.2443 25.2972 24.3585 25.158 24.505 25.0601C24.6515 24.9622 24.8238 24.91 25 24.91C25.2362 24.9103 25.4627 25.0043 25.6298 25.1713C25.7968 25.3384 25.8908 25.5649 25.891 25.8012V25.8012ZM18.0357 24.9102C18.212 24.9102 18.3842 24.9624 18.5308 25.0603C18.6773 25.1582 18.7915 25.2974 18.8589 25.4602C18.9264 25.623 18.944 25.8022 18.9096 25.975C18.8753 26.1478 18.7904 26.3066 18.6658 26.4312C18.5412 26.5558 18.3824 26.6407 18.2096 26.6751C18.0367 26.7094 17.8576 26.6918 17.6948 26.6244C17.5319 26.5569 17.3928 26.4427 17.2949 26.2962C17.197 26.1497 17.1447 25.9774 17.1447 25.8012C17.145 25.5649 17.239 25.3384 17.406 25.1713C17.5731 25.0042 17.7996 24.9102 18.0359 24.91L18.0357 24.9102ZM33.4115 32.9977C33.344 32.6635 33.1629 32.363 32.899 32.1472C32.6352 31.9313 32.3048 31.8134 31.9639 31.8134C31.623 31.8134 31.2926 31.9313 31.0287 32.1472C30.7648 32.363 30.5838 32.6635 30.5162 32.9977H26.4477C26.3801 32.6635 26.199 32.363 25.9352 32.1472C25.6713 31.9313 25.3409 31.8134 25 31.8134C24.6591 31.8134 24.3287 31.9313 24.0648 32.1472C23.801 32.363 23.6199 32.6635 23.5523 32.9977H19.4836C19.416 32.6635 19.235 32.363 18.9711 32.1472C18.7072 31.9313 18.3768 31.8134 18.0359 31.8134C17.695 31.8134 17.3646 31.9313 17.1008 32.1472C16.8369 32.363 16.6558 32.6635 16.5883 32.9977H12.8268V29.8387H19.4283C19.4959 30.1728 19.6769 30.4733 19.9408 30.6891C20.2047 30.905 20.5351 31.0229 20.876 31.0229C21.2169 31.0229 21.5473 30.905 21.8111 30.6891C22.075 30.4733 22.2561 30.1728 22.3236 29.8387H27.6781C27.7457 30.1728 27.9267 30.4733 28.1906 30.6891C28.4545 30.905 28.7849 31.0229 29.1258 31.0229C29.4667 31.0229 29.7971 30.905 30.0609 30.6891C30.3248 30.4733 30.5059 30.1728 30.5734 29.8387H37.175V32.9975L33.4115 32.9977ZM32.8551 33.2906C32.8551 33.4669 32.8029 33.6392 32.705 33.7858C32.607 33.9324 32.4679 34.0467 32.305 34.1142C32.1421 34.1816 31.9629 34.1993 31.79 34.1649C31.6171 34.1305 31.4583 34.0457 31.3337 33.921C31.209 33.7964 31.1241 33.6375 31.0898 33.4646C31.0554 33.2917 31.073 33.1125 31.1405 32.9497C31.208 32.7868 31.3223 32.6476 31.4689 32.5497C31.6154 32.4518 31.7878 32.3996 31.9641 32.3996C32.2003 32.3999 32.4267 32.4938 32.5938 32.6608C32.7609 32.8278 32.8549 33.0542 32.8553 33.2904L32.8551 33.2906ZM25.891 33.2906C25.8909 33.4668 25.8386 33.6391 25.7407 33.7855C25.6427 33.932 25.5035 34.0462 25.3407 34.1135C25.1779 34.1809 24.9987 34.1985 24.8259 34.1641C24.6531 34.1297 24.4944 34.0448 24.3698 33.9201C24.2452 33.7955 24.1604 33.6367 24.1261 33.4639C24.0917 33.2911 24.1094 33.112 24.1768 32.9492C24.2443 32.7864 24.3585 32.6472 24.505 32.5494C24.6515 32.4515 24.8238 32.3992 25 32.3992C25.2362 32.3995 25.4627 32.4935 25.6298 32.6606C25.7968 32.8277 25.8908 33.0542 25.891 33.2904V33.2906ZM18.9269 33.2906C18.927 33.4669 18.8747 33.6392 18.7768 33.7858C18.6789 33.9324 18.5397 34.0467 18.3769 34.1142C18.214 34.1816 18.0348 34.1993 17.8619 34.1649C17.689 34.1305 17.5302 34.0457 17.4056 33.921C17.2809 33.7964 17.196 33.6375 17.1616 33.4646C17.1273 33.2917 17.1449 33.1125 17.2124 32.9497C17.2799 32.7868 17.3941 32.6476 17.5407 32.5497C17.6873 32.4518 17.8597 32.3996 18.0359 32.3996C18.2721 32.3999 18.4985 32.4939 18.6656 32.6609C18.8326 32.8278 18.9266 33.0542 18.9269 33.2904V33.2906ZM19.984 29.5459C19.984 29.3696 20.0362 29.1973 20.1342 29.0508C20.2321 28.9042 20.3713 28.79 20.5341 28.7225C20.697 28.6551 20.8762 28.6374 21.0491 28.6718C21.2219 28.7062 21.3807 28.7911 21.5054 28.9157C21.63 29.0404 21.7149 29.1992 21.7493 29.372C21.7837 29.5449 21.766 29.7241 21.6986 29.887C21.6311 30.0498 21.5169 30.189 21.3703 30.2869C21.2238 30.3848 21.0515 30.4371 20.8752 30.4371C20.6389 30.4369 20.4123 30.3428 20.2452 30.1757C20.0781 30.0086 19.9842 29.782 19.984 29.5457V29.5459ZM28.2338 29.5459C28.2338 29.3696 28.2861 29.1973 28.384 29.0508C28.4819 28.9042 28.6211 28.79 28.7839 28.7225C28.9468 28.6551 29.126 28.6374 29.2989 28.6718C29.4717 28.7062 29.6305 28.7911 29.7552 28.9157C29.8798 29.0404 29.9647 29.1992 29.9991 29.372C30.0335 29.5449 30.0158 29.7241 29.9484 29.887C29.8809 30.0498 29.7667 30.189 29.6201 30.2869C29.4736 30.3848 29.3013 30.4371 29.125 30.4371C28.8887 30.4369 28.6621 30.3428 28.495 30.1757C28.3279 30.0086 28.234 29.782 28.2338 29.5457V29.5459ZM37.1732 25.5084H33.4117C33.3536 25.224 33.2131 24.9629 33.0079 24.7576C32.8026 24.5523 32.5415 24.4118 32.257 24.3537V22.3498H35.8519C35.8555 22.3498 35.8586 22.3498 35.8619 22.3488C36.2793 22.5818 36.7184 22.7735 37.173 22.9213L37.1732 25.5084ZM12.8268 37.3279H19.4283C19.4959 37.6621 19.6769 37.9625 19.9408 38.1784C20.2047 38.3942 20.5351 38.5122 20.876 38.5122C21.2169 38.5122 21.5473 38.3942 21.8111 38.1784C22.075 37.9625 22.2561 37.6621 22.3236 37.3279H27.6781C27.7457 37.6621 27.9267 37.9625 28.1906 38.1784C28.4545 38.3942 28.7849 38.5122 29.1258 38.5122C29.4667 38.5122 29.7971 38.3942 30.0609 38.1784C30.3248 37.9625 30.5059 37.6621 30.5734 37.3279H37.175V42.1293H27.8435V40.5596C27.8435 40.4819 27.8127 40.4074 27.7577 40.3524C27.7028 40.2975 27.6283 40.2666 27.5506 40.2666H25.293V38.6746C25.293 38.5969 25.2621 38.5224 25.2072 38.4675C25.1522 38.4125 25.0777 38.3816 25 38.3816C24.9223 38.3816 24.8478 38.4125 24.7928 38.4675C24.7379 38.5224 24.707 38.5969 24.707 38.6746V40.2666H22.4494C22.3717 40.2666 22.2972 40.2975 22.2422 40.3524C22.1873 40.4074 22.1564 40.4819 22.1564 40.5596V42.1293H12.8268V37.3279ZM22.7424 40.8529H27.2574V42.1293H22.7424V40.8529ZM27.2574 42.7156V43.9924H22.7424V42.7152L27.2574 42.7156ZM27.8434 43.9924V42.7152H37.466C37.5437 42.7152 37.6182 42.6844 37.6732 42.6294C37.7281 42.5745 37.759 42.5 37.759 42.4223V23.0842C38.2188 23.1925 38.6879 23.2563 39.1599 23.2748V43.9924H27.8434ZM46.2601 15.8895C46.2611 17.2386 45.8608 18.5576 45.1102 19.6788C44.3597 20.7999 43.2927 21.6726 42.0449 22.1858C40.7972 22.699 39.425 22.8297 38.1028 22.5611C36.7806 22.2925 35.5682 21.6369 34.6195 20.6775H42.8174C42.8951 20.6775 42.9696 20.6467 43.0245 20.5917C43.0795 20.5368 43.1103 20.4623 43.1103 20.3846V18.1467C43.1094 17.5244 42.8959 16.921 42.5052 16.4366C42.1145 15.9523 41.57 15.6159 40.9619 15.4834C41.3646 15.1692 41.6591 14.737 41.8044 14.2474C41.9496 13.7577 41.9384 13.2349 41.7722 12.7519C41.6061 12.2689 41.2933 11.8498 40.8775 11.5532C40.4617 11.2565 39.9637 11.097 39.4529 11.097C38.9421 11.097 38.4441 11.2565 38.0283 11.5532C37.6125 11.8498 37.2998 12.2689 37.1336 12.7519C36.9674 13.2349 36.9562 13.7577 37.1015 14.2474C37.2467 14.737 37.5413 15.1692 37.9439 15.4834C37.3359 15.6159 36.7914 15.9523 36.4006 16.4366C36.0099 16.921 35.7964 17.5244 35.7955 18.1467V20.0916H34.1043C33.4341 19.2386 32.9776 18.2377 32.7728 17.1724C32.568 16.1071 32.6208 15.0083 32.9269 13.9675C33.2329 12.9268 33.7834 11.9743 34.5323 11.1895C35.2812 10.4047 36.2069 9.81032 37.2322 9.4559C38.2575 9.10149 39.3526 8.99732 40.4263 9.15208C41.5 9.30685 42.5212 9.71606 43.4046 10.3456C44.2881 10.9751 45.0082 11.8068 45.505 12.7711C46.0018 13.7355 46.2608 14.8046 46.2605 15.8895H46.2601ZM39.4531 15.4207C39.0839 15.4207 38.723 15.3112 38.416 15.1061C38.109 14.901 37.8697 14.6094 37.7284 14.2683C37.5871 13.9272 37.5502 13.5518 37.6222 13.1897C37.6942 12.8276 37.872 12.495 38.1331 12.2339C38.3942 11.9728 38.7268 11.795 39.0889 11.723C39.451 11.6509 39.8264 11.6879 40.1675 11.8292C40.5086 11.9705 40.8002 12.2098 41.0053 12.5168C41.2104 12.8238 41.3199 13.1847 41.3199 13.5539C41.3193 14.0488 41.1225 14.5233 40.7725 14.8733C40.4225 15.2233 39.948 15.4201 39.4531 15.4207ZM40.3849 16.0066C40.9524 16.0073 41.4964 16.2329 41.8976 16.6342C42.2989 17.0354 42.5246 17.5794 42.5252 18.1469V20.0918H36.381V18.1467C36.3817 17.5792 36.6074 17.0352 37.0086 16.634C37.4098 16.2328 37.9538 16.0071 38.5213 16.0064L40.3849 16.0066ZM39.1601 8.50391C38.6881 8.52239 38.219 8.58623 37.7592 8.69453V5.43496C37.7592 5.35726 37.7283 5.28274 37.6734 5.2278C37.6184 5.17286 37.5439 5.14199 37.4662 5.14199H27.8435V3.86523H39.1601V8.50391ZM22.1564 3.86523V5.14199H12.5338C12.4561 5.14199 12.3816 5.17286 12.3266 5.2278C12.2717 5.28274 12.2408 5.35726 12.2408 5.43496V8.69473C11.781 8.58642 11.3119 8.52259 10.8398 8.5041V3.86523H22.1564ZM3.73984 15.8895C3.73864 14.8039 3.9971 13.7337 4.49365 12.7684C4.99021 11.803 5.71045 10.9704 6.59428 10.34C7.47811 9.70964 8.49989 9.29981 9.57434 9.14471C10.6488 8.98961 11.7448 9.09374 12.7708 9.44842C13.7968 9.80309 14.7231 10.398 15.4724 11.1835C16.2217 11.9691 16.7723 12.9224 17.0781 13.964C17.384 15.0057 17.4363 16.1053 17.2307 17.1713C17.025 18.2372 16.5675 19.2385 15.8961 20.0916H14.2049V18.1467C14.204 17.5244 13.9905 16.921 13.5997 16.4366C13.209 15.9523 12.6645 15.6159 12.0564 15.4834C12.4591 15.1692 12.7536 14.737 12.8989 14.2474C13.0442 13.7577 13.0329 13.2349 12.8668 12.7519C12.7006 12.2689 12.3878 11.8498 11.972 11.5532C11.5563 11.2565 11.0582 11.097 10.5475 11.097C10.0367 11.097 9.53866 11.2565 9.12287 11.5532C8.70709 11.8498 8.39429 12.2689 8.22813 12.7519C8.06198 13.2349 8.05075 13.7577 8.19602 14.2474C8.34129 14.737 8.63581 15.1692 9.03847 15.4834C8.43043 15.6159 7.88592 15.9523 7.49519 16.4366C7.10445 16.921 6.89094 17.5244 6.89004 18.1467V20.3846C6.89004 20.4623 6.9209 20.5368 6.97585 20.5917C7.03079 20.6467 7.10531 20.6775 7.18301 20.6775H15.3797C14.431 21.6369 13.2186 22.2925 11.8964 22.5611C10.5742 22.8297 9.20201 22.699 7.95426 22.1858C6.7065 21.6726 5.63953 20.7999 4.88896 19.6788C4.1384 18.5576 3.73814 17.2386 3.73906 15.8895H3.73984ZM10.5469 15.4207C10.1777 15.4207 9.81673 15.3112 9.50974 15.1061C9.20274 14.901 8.96347 14.6094 8.82218 14.2683C8.68088 13.9272 8.64392 13.5518 8.71595 13.1897C8.78798 12.8276 8.96577 12.495 9.22685 12.2339C9.48792 11.9728 9.82056 11.795 10.1827 11.723C10.5448 11.6509 10.9202 11.6879 11.2613 11.8292C11.6024 11.9705 11.8939 12.2098 12.0991 12.5168C12.3042 12.8238 12.4137 13.1847 12.4137 13.5539C12.4131 14.0488 12.2162 14.5233 11.8663 14.8733C11.5163 15.2233 11.0418 15.4201 10.5469 15.4207V15.4207ZM11.4787 16.0066C12.0461 16.0073 12.5901 16.2329 12.9913 16.6341C13.3926 17.0353 13.6183 17.5793 13.6189 18.1467V20.0916H7.4748V18.1467C7.47548 17.5793 7.70119 17.0353 8.10242 16.6341C8.50365 16.2329 9.04764 16.0073 9.61504 16.0066H11.4787ZM10.8398 23.275C11.3119 23.2565 11.781 23.1927 12.2408 23.0844V42.4223C12.2408 42.5 12.2717 42.5745 12.3266 42.6294C12.3816 42.6844 12.4561 42.7152 12.5338 42.7152H22.1564V43.992H10.8398V23.275Z" fill="#3F3679"/>
</svg>
