<svg width="152" height="40" viewBox="0 0 152 40" fill="none" xmlns="http://www.w3.org/2000/svg">
<path d="M7.7546 39V0.119997H16.3466V33.192H25.2746V39H7.7546ZM29.0838 39V0.119997H37.6758V39H29.0838ZM46.9773 39V6.504H41.1213V0.119997H61.4253V6.504H55.6173V39H46.9773ZM64.8483 39V0.119997H82.3203V5.976H73.4403V15.624H80.2083V21.576H73.4403V33.192H82.4163V39H64.8483Z" fill="#181616"/>
<path d="M92.248 39V0.119997H102.376C104.04 0.119997 105.608 0.247997 107.08 0.503998C108.584 0.759998 109.912 1.256 111.064 1.992C112.216 2.696 113.112 3.72 113.752 5.064C114.424 6.376 114.76 8.12 114.76 10.296C114.76 11.864 114.52 13.192 114.04 14.28C113.592 15.336 112.936 16.184 112.072 16.824C111.24 17.464 110.232 17.896 109.048 18.12C110.552 18.312 111.816 18.808 112.84 19.608C113.864 20.376 114.632 21.416 115.144 22.728C115.688 24.04 115.96 25.624 115.96 27.48C115.96 29.496 115.688 31.24 115.144 32.712C114.632 34.152 113.88 35.336 112.888 36.264C111.896 37.192 110.664 37.88 109.192 38.328C107.752 38.776 106.088 39 104.2 39H92.248ZM100.84 33H102.664C104.552 33 105.848 32.52 106.552 31.56C107.288 30.6 107.656 29.192 107.656 27.336C107.656 25.864 107.496 24.696 107.176 23.832C106.856 22.968 106.328 22.344 105.592 21.96C104.856 21.544 103.864 21.336 102.616 21.336H100.84V33ZM100.84 15.672H102.52C103.832 15.672 104.824 15.48 105.496 15.096C106.168 14.68 106.616 14.088 106.84 13.32C107.096 12.552 107.224 11.624 107.224 10.536C107.224 9.512 107.032 8.664 106.648 7.992C106.296 7.288 105.752 6.76 105.016 6.408C104.312 6.056 103.416 5.88 102.328 5.88H100.84V15.672ZM120.083 39V11.256H127.907V39H120.083ZM120.035 6.552V1.128H127.907V6.552H120.035ZM141.282 39.48C138.85 39.48 136.818 38.936 135.186 37.848C133.586 36.76 132.274 34.984 131.25 32.52L136.578 30.168C137.09 31.416 137.682 32.408 138.354 33.144C139.058 33.848 139.826 34.2 140.658 34.2C141.266 34.2 141.714 34.072 142.002 33.816C142.322 33.56 142.482 33.208 142.482 32.76C142.482 32.024 142.194 31.352 141.618 30.744C141.074 30.136 140.082 29.24 138.642 28.056L136.626 26.376C135.154 25.128 133.986 23.928 133.122 22.776C132.29 21.592 131.874 20.136 131.874 18.408C131.874 16.904 132.258 15.576 133.026 14.424C133.826 13.272 134.882 12.376 136.194 11.736C137.506 11.096 138.914 10.776 140.418 10.776C142.69 10.776 144.594 11.4 146.13 12.648C147.666 13.896 148.738 15.656 149.346 17.928L144.306 20.232C144.114 19.624 143.842 19.016 143.49 18.408C143.138 17.8 142.706 17.288 142.194 16.872C141.714 16.456 141.186 16.248 140.61 16.248C140.098 16.248 139.682 16.392 139.362 16.68C139.074 16.968 138.93 17.352 138.93 17.832C138.93 18.44 139.266 19.096 139.938 19.8C140.642 20.504 141.602 21.352 142.818 22.344L144.786 24.072C145.586 24.744 146.37 25.464 147.138 26.232C147.906 27 148.53 27.848 149.01 28.776C149.522 29.704 149.778 30.76 149.778 31.944C149.778 33.544 149.378 34.92 148.578 36.072C147.778 37.192 146.722 38.04 145.41 38.616C144.13 39.192 142.754 39.48 141.282 39.48Z" fill="#F46275"/>
</svg>
