<svg width="80" height="80" viewBox="0 0 80 80" fill="none" xmlns="http://www.w3.org/2000/svg">
<path d="M26.666 34.334H26.6993" stroke="#63BCE7" stroke-width="3" stroke-linecap="round" stroke-linejoin="round"/>
<path d="M40 34.334H40.0333" stroke="#63BCE7" stroke-width="3" stroke-linecap="round" stroke-linejoin="round"/>
<path d="M53.334 34.334H53.3673" stroke="#63BCE7" stroke-width="3" stroke-linecap="round" stroke-linejoin="round"/>
<path d="M70 44.3333V24.3333C70 18.0479 70 14.9052 68.0473 12.9526C66.0947 11 62.952 11 56.6667 11H23.3333C17.0479 11 13.9052 11 11.9526 12.9526C10 14.9052 10 18.0479 10 24.3333V44.3333C10 50.6187 10 53.7613 11.9526 55.714C13.9052 57.6667 17.0479 57.6667 23.3333 57.6667H25C25.9205 57.6667 26.6667 58.413 26.6667 59.3333V67.6667V68.1663C26.6667 69.3457 28.0046 70.027 28.9583 69.3333L43.652 58.647C44.528 58.01 45.5833 57.6667 46.6667 57.6667H56.6667C62.952 57.6667 66.0947 57.6667 68.0473 55.714C70 53.7613 70 50.6187 70 44.3333Z" stroke="#63BCE7" stroke-width="3" stroke-linejoin="round"/>
</svg>
