<svg width="80" height="80" viewBox="0 0 80 80" fill="none" xmlns="http://www.w3.org/2000/svg">
<path d="M49 23.5172C49.9023 23.1827 50.878 23 51.8967 23C56.499 23 60.23 26.731 60.23 31.3333C60.23 35.9357 56.499 39.6667 51.8967 39.6667C50.878 39.6667 49.9023 39.484 49 39.1493" stroke="#63BCE7" stroke-width="3" stroke-linecap="round"/>
<path d="M10 63.334C12.3046 55.6433 18.2333 53.334 31.6667 53.334C45.1 53.334 51.0287 55.6433 53.3333 63.334" stroke="#63BCE7" stroke-width="3" stroke-linecap="round"/>
<path d="M53.5625 49.666C61.5725 49.9827 65.3265 51.7937 66.8958 56.3327" stroke="#63BCE7" stroke-width="3" stroke-linecap="round"/>
<path d="M43.3333 31.6667C43.3333 38.11 38.11 43.3333 31.6667 43.3333C25.2233 43.3333 20 38.11 20 31.6667C20 25.2233 25.2233 20 31.6667 20C38.11 20 43.3333 25.2233 43.3333 31.6667Z" stroke="#63BCE7" stroke-width="3"/>
</svg>
